# xmcd CD database file
#
# Track frame offsets:
#	150
#	21737
#	40230
#	60055
#	79310
#	103607
#	119642
#	134580
#	148090
#	163810
#	180137
#	195965
#	217635
#	239275
#
# Disc length: 3376 seconds
#
# Revision: 0
# Processed by: cddbd v1.5.2PL0 Copyright (c) Steve Scherf et al.
# Submitted via: CDex 1.51
#
DISCID=bd0d2e0e
DTITLE=Cleylton Dos Teclados - Só Bolesos
DYEAR=2001
DGENRE=Blues
TTITLE0=Cadê Vecê-Olha Amor
TTITLE1=As Rosas não Falam-Risque-Adeus,Cinco Letras que Choram
TTITLE2=Alguem Me Disse-Quem és Tu-A Noite Do Meu Bem
TTITLE3=A Rua Em Que Você Morava-Sendo Assim
TTITLE4=Meus Tempos De Criança-India
TTITLE5=Tudo De Mim-Velha Companheira
TTITLE6=Tortura De Amor-Marina
TTITLE7=Caminhemos-Lambranças
TTITLE8=Meu Vício è Você-A Volta Do Boemio
TTITLE9=Matriz Ou Filial-Quem É
TTITLE10=Perfídia-Maria Helena
TTITLE11=Angústia-Perfume De Gardênia
TTITLE12=Princesa-Tum Tum De Saudade
TTITLE13=A Pretendida-Quem Eu Quero Não Me Quer
EXTD=YEAR: 2001
EXTT0=
EXTT1=
EXTT2=
EXTT3=
EXTT4=
EXTT5=
EXTT6=
EXTT7=
EXTT8=
EXTT9=
EXTT10=
EXTT11=
EXTT12=
EXTT13=
PLAYORDER=
